<svg width="27" height="27" viewBox="0 0 27 27" fill="none" xmlns="http://www.w3.org/2000/svg">
<path fill-rule="evenodd" clip-rule="evenodd" d="M6.43463 6.43463C6.76413 6.10512 7.29837 6.10512 7.62787 6.43463L13.5 12.3068L19.3721 6.43463C19.7016 6.10512 20.2359 6.10512 20.5654 6.43463C20.8949 6.76413 20.8949 7.29837 20.5654 7.62787L14.6932 13.5L20.5654 19.3721C20.8949 19.7016 20.8949 20.2359 20.5654 20.5654C20.2359 20.8949 19.7016 20.8949 19.3721 20.5654L13.5 14.6932L7.62787 20.5654C7.29837 20.8949 6.76413 20.8949 6.43463 20.5654C6.10512 20.2359 6.10512 19.7016 6.43463 19.3721L12.3068 13.5L6.43463 7.62787C6.10512 7.29837 6.10512 6.76413 6.43463 6.43463Z" fill="#24292E"/>
</svg>
